<?xml version="1.0" encoding="UTF-8" standalone="no"?>
<!-- Created with Inkscape (http://www.inkscape.org/) -->

<svg
   xmlns:dc="http://purl.org/dc/elements/1.1/"
   xmlns:cc="http://creativecommons.org/ns#"
   xmlns:rdf="http://www.w3.org/1999/02/22-rdf-syntax-ns#"
   xmlns:svg="http://www.w3.org/2000/svg"
   xmlns="http://www.w3.org/2000/svg"
   xmlns:xlink="http://www.w3.org/1999/xlink"
   xmlns:sodipodi="http://sodipodi.sourceforge.net/DTD/sodipodi-0.dtd"
   xmlns:inkscape="http://www.inkscape.org/namespaces/inkscape"
   width="30"
   height="30"
   id="svg3244"
   version="1.1"
   inkscape:version="0.48.4 r9939"
   inkscape:export-filename="/home/david/dev/RaspJam/images/fruit/grape.png"
   inkscape:export-xdpi="90"
   inkscape:export-ydpi="90"
   sodipodi:docname="fruit.svg">
  <defs
     id="defs3246">
    <linearGradient
       id="linearGradient3923">
      <stop
         style="stop-color:#ffffff;stop-opacity:1;"
         offset="0"
         id="stop3925" />
      <stop
         style="stop-color:#ff6600;stop-opacity:0;"
         offset="1"
         id="stop3927" />
    </linearGradient>
    <linearGradient
       id="linearGradient3899">
      <stop
         id="stop3901"
         offset="0"
         style="stop-color:#ffffff;stop-opacity:1;" />
      <stop
         id="stop3903"
         offset="1"
         style="stop-color:#00ff00;stop-opacity:0;" />
    </linearGradient>
    <linearGradient
       inkscape:collect="always"
       xlink:href="#linearGradient3923"
       id="linearGradient4003"
       gradientUnits="userSpaceOnUse"
       gradientTransform="matrix(1.1371931,0,0,0.97271155,-20.938106,-12.301298)"
       x1="20.59375"
       y1="30.03125"
       x2="32"
       y2="30.03125" />
    <linearGradient
       inkscape:collect="always"
       xlink:href="#linearGradient3923"
       id="linearGradient4115"
       gradientUnits="userSpaceOnUse"
       gradientTransform="matrix(1.0666254,0,0,0.91767602,-0.53932538,2.5489931)"
       x1="4.4927959"
       y1="19.383621"
       x2="14.918487"
       y2="19.383621" />
    <linearGradient
       inkscape:collect="always"
       xlink:href="#linearGradient3899"
       id="linearGradient3074"
       gradientUnits="userSpaceOnUse"
       gradientTransform="matrix(1.0666254,0,0,0.91767602,31.609841,-32.100664)"
       x1="4.4927959"
       y1="19.383621"
       x2="14.918487"
       y2="19.383621" />
  </defs>
  <sodipodi:namedview
     id="base"
     pagecolor="#ffffff"
     bordercolor="#666666"
     borderopacity="1.0"
     inkscape:pageopacity="0.0"
     inkscape:pageshadow="2"
     inkscape:zoom="8.4665273"
     inkscape:cx="13.846191"
     inkscape:cy="20.868433"
     inkscape:current-layer="layer1"
     showgrid="true"
     inkscape:grid-bbox="true"
     inkscape:document-units="px"
     inkscape:snap-grids="false"
     inkscape:window-width="956"
     inkscape:window-height="1021"
     inkscape:window-x="960"
     inkscape:window-y="29"
     inkscape:window-maximized="0">
    <inkscape:grid
       type="xygrid"
       id="grid3252"
       empspacing="5"
       visible="true"
       enabled="true"
       snapvisiblegridlinesonly="true" />
  </sodipodi:namedview>
  <metadata
     id="metadata3249">
    <rdf:RDF>
      <cc:Work
         rdf:about="">
        <dc:format>image/svg+xml</dc:format>
        <dc:type
           rdf:resource="http://purl.org/dc/dcmitype/StillImage" />
        <dc:title />
      </cc:Work>
    </rdf:RDF>
  </metadata>
  <g
     id="layer1"
     inkscape:label="Layer 1"
     inkscape:groupmode="layer"
     transform="translate(0,-2)">
    <g
       id="g3049"
       transform="translate(30.005889,0.53581944)">
      <path
         transform="matrix(2.773792,0,0,3.2999778,-35.621586,-55.684808)"
         sodipodi:type="arc"
         style="fill:#000000;fill-opacity:1;fill-rule:evenodd;stroke:#000000;stroke-width:1px;stroke-linecap:butt;stroke-linejoin:miter;stroke-opacity:1"
         id="path3291"
         sodipodi:cx="7.5"
         sodipodi:cy="12"
         sodipodi:rx="3.5"
         sodipodi:ry="3"
         d="M 11,12 C 11,13.656854 9.4329966,15 7.5,15 5.5670034,15 4,13.656854 4,12 4,10.343146 5.5670034,9 7.5,9 9.4329966,9 11,10.343146 11,12 z" />
      <path
         sodipodi:nodetypes="ccccc"
         inkscape:connector-curvature="0"
         id="path3287"
         d="m -15.11886,-25.611408 -2.673896,2.673896 c -4.169662,-1.657154 -7.555021,-3.695864 -6.239089,-8.021687 4.170291,-1.620283 7.281827,-0.641806 9.804283,1.782597 z"
         style="fill:#00ff00;stroke:#000000;stroke-width:0.89129853px;stroke-linecap:butt;stroke-linejoin:miter;stroke-opacity:1" />
      <path
         style="fill:#00ff00;stroke:#000000;stroke-width:1px;stroke-linecap:butt;stroke-linejoin:miter;stroke-opacity:1"
         d="m -15.536788,-25.187343 3,3 c 4.67819,-1.859259 8.476421,-4.146606 7,-9 -4.678893,-1.81789 -7.107572,-1.056515 -9.937663,1.663564 z"
         id="path3289"
         inkscape:connector-curvature="0"
         sodipodi:nodetypes="ccccc" />
      <path
         transform="matrix(1.1206687,0,0,0.96397942,-28.338063,-33.773554)"
         d="M 11,12 C 11,13.656854 9.4329966,15 7.5,15 5.5670034,15 4,13.656854 4,12 4,10.343146 5.5670034,9 7.5,9 9.4329966,9 11,10.343146 11,12 z"
         sodipodi:ry="3"
         sodipodi:rx="3.5"
         sodipodi:cy="12"
         sodipodi:cx="7.5"
         id="path3265"
         style="fill:#d40055;fill-rule:evenodd;stroke:#000000;stroke-width:1px;stroke-linecap:butt;stroke-linejoin:miter;stroke-opacity:1"
         sodipodi:type="arc" />
      <path
         transform="matrix(0.97706399,0,0,1.3784982,-30.481521,-33.263245)"
         sodipodi:type="arc"
         style="fill:#d40055;fill-rule:evenodd;stroke:#000000;stroke-width:1px;stroke-linecap:butt;stroke-linejoin:miter;stroke-opacity:1"
         id="path3267"
         sodipodi:cx="7.5"
         sodipodi:cy="12"
         sodipodi:rx="3.5"
         sodipodi:ry="3"
         d="M 11,12 C 11,13.656854 9.4329966,15 7.5,15 5.5670034,15 4,13.656854 4,12 4,10.343146 5.5670034,9 7.5,9 9.4329966,9 11,10.343146 11,12 z" />
      <path
         transform="matrix(1.4080221,0,0,1.144531,-25.378313,-21.125872)"
         sodipodi:type="arc"
         style="fill:#d40055;fill-rule:evenodd;stroke:#000000;stroke-width:1px;stroke-linecap:butt;stroke-linejoin:miter;stroke-opacity:1"
         id="path3271"
         sodipodi:cx="7.5"
         sodipodi:cy="12"
         sodipodi:rx="3.5"
         sodipodi:ry="3"
         d="M 11,12 C 11,13.656854 9.4329966,15 7.5,15 5.5670034,15 4,13.656854 4,12 4,10.343146 5.5670034,9 7.5,9 9.4329966,9 11,10.343146 11,12 z" />
      <path
         d="M 11,12 C 11,13.656854 9.4329966,15 7.5,15 5.5670034,15 4,13.656854 4,12 4,10.343146 5.5670034,9 7.5,9 9.4329966,9 11,10.343146 11,12 z"
         sodipodi:ry="3"
         sodipodi:rx="3.5"
         sodipodi:cy="12"
         sodipodi:cx="7.5"
         id="path3269"
         style="fill:#d40055;fill-rule:evenodd;stroke:#000000;stroke-width:1px;stroke-linecap:butt;stroke-linejoin:miter;stroke-opacity:1"
         sodipodi:type="arc"
         transform="matrix(0.98878553,0,0,1.1763572,-28.485584,-25.044015)" />
      <path
         transform="matrix(0.97940838,0,0,1.3365817,-14.017756,-33.020496)"
         sodipodi:type="arc"
         style="fill:#d40055;fill-rule:evenodd;stroke:#000000;stroke-width:1px;stroke-linecap:butt;stroke-linejoin:miter;stroke-opacity:1"
         id="path3275"
         sodipodi:cx="7.5"
         sodipodi:cy="12"
         sodipodi:rx="3.5"
         sodipodi:ry="3"
         d="M 11,12 C 11,13.656854 9.4329966,15 7.5,15 5.5670034,15 4,13.656854 4,12 4,10.343146 5.5670034,9 7.5,9 9.4329966,9 11,10.343146 11,12 z" />
      <path
         d="M 11,12 C 11,13.656854 9.4329966,15 7.5,15 5.5670034,15 4,13.656854 4,12 4,10.343146 5.5670034,9 7.5,9 9.4329966,9 11,10.343146 11,12 z"
         sodipodi:ry="3"
         sodipodi:rx="3.5"
         sodipodi:cy="12"
         sodipodi:cx="7.5"
         id="path3273"
         style="fill:#d40055;fill-rule:evenodd;stroke:#000000;stroke-width:1px;stroke-linecap:butt;stroke-linejoin:miter;stroke-opacity:1"
         sodipodi:type="arc"
         transform="matrix(0.98878553,0,0,1.1763572,-15.666758,-24.917721)" />
      <path
         d="M 11,12 C 11,13.656854 9.4329966,15 7.5,15 5.5670034,15 4,13.656854 4,12 4,10.343146 5.5670034,9 7.5,9 9.4329966,9 11,10.343146 11,12 z"
         sodipodi:ry="3"
         sodipodi:rx="3.5"
         sodipodi:cy="12"
         sodipodi:cx="7.5"
         id="path3277"
         style="fill:#d40055;fill-rule:evenodd;stroke:#000000;stroke-width:1px;stroke-linecap:butt;stroke-linejoin:miter;stroke-opacity:1"
         sodipodi:type="arc"
         transform="matrix(1.0002507,0,0,0.99624292,-16.636804,-33.984353)" />
      <path
         d="M 11,12 C 11,13.656854 9.4329966,15 7.5,15 5.5670034,15 4,13.656854 4,12 4,10.343146 5.5670034,9 7.5,9 9.4329966,9 11,10.343146 11,12 z"
         sodipodi:ry="3"
         sodipodi:rx="3.5"
         sodipodi:cy="12"
         sodipodi:cx="7.5"
         id="path3281"
         style="fill:#d40055;fill-rule:evenodd;stroke:#000000;stroke-width:1px;stroke-linecap:butt;stroke-linejoin:miter;stroke-opacity:1"
         sodipodi:type="arc"
         transform="matrix(0.98878553,0,0,1.1763572,-25.371574,-31.251256)" />
      <path
         transform="matrix(0.98878553,0,0,1.1763572,-18.668482,-31.2251)"
         sodipodi:type="arc"
         style="fill:#d40055;fill-rule:evenodd;stroke:#000000;stroke-width:1px;stroke-linecap:butt;stroke-linejoin:miter;stroke-opacity:1"
         id="path3283"
         sodipodi:cx="7.5"
         sodipodi:cy="12"
         sodipodi:rx="3.5"
         sodipodi:ry="3"
         d="M 11,12 C 11,13.656854 9.4329966,15 7.5,15 5.5670034,15 4,13.656854 4,12 4,10.343146 5.5670034,9 7.5,9 9.4329966,9 11,10.343146 11,12 z" />
      <path
         d="M 11,12 C 11,13.656854 9.4329966,15 7.5,15 5.5670034,15 4,13.656854 4,12 4,10.343146 5.5670034,9 7.5,9 9.4329966,9 11,10.343146 11,12 z"
         sodipodi:ry="3"
         sodipodi:rx="3.5"
         sodipodi:cy="12"
         sodipodi:cx="7.5"
         id="path3285"
         style="fill:#d40055;fill-rule:evenodd;stroke:#000000;stroke-width:1px;stroke-linecap:butt;stroke-linejoin:miter;stroke-opacity:1"
         sodipodi:type="arc"
         transform="matrix(1.0002507,0,0,0.99624293,-22.201394,-23.517634)" />
      <path
         sodipodi:nodetypes="cc"
         inkscape:connector-curvature="0"
         id="path3295"
         d="m -23.474451,-30.925644 c 1.866278,2.467612 4.302949,4.54998 7,5"
         style="opacity:0.35135139;fill:none;stroke:#000000;stroke-width:1px;stroke-linecap:round;stroke-linejoin:round;stroke-opacity:1" />
      <path
         sodipodi:nodetypes="cc"
         inkscape:connector-curvature="0"
         id="path3297"
         d="m -14.474451,-25.925644 c 3.727317,-0.225564 6.364864,-3.612112 8,-5"
         style="opacity:0.35135139;fill:none;stroke:#000000;stroke-width:1px;stroke-linecap:round;stroke-linejoin:round;stroke-opacity:1" />
      <path
         transform="matrix(1.0213511,0,0,0.70829872,-22.28559,-30.741522)"
         sodipodi:type="arc"
         style="fill:#d40055;fill-rule:evenodd;stroke:#000000;stroke-width:1px;stroke-linecap:butt;stroke-linejoin:miter;stroke-opacity:1"
         id="path4067"
         sodipodi:cx="7.5"
         sodipodi:cy="12"
         sodipodi:rx="3.5"
         sodipodi:ry="3"
         d="M 11,12 C 11,13.656854 9.4329966,15 7.5,15 5.5670034,15 4,13.656854 4,12 4,10.343146 5.5670034,9 7.5,9 9.4329966,9 11,10.343146 11,12 z" />
    </g>
    <g
       id="g3067"
       transform="translate(1.4288516,1.0716389)">
      <path
         inkscape:connector-curvature="0"
         id="path3085"
         d="m 45.656588,-22.486259 c -3.804755,-2.843458 -9.809509,0.275738 -10.106085,4.909081 -0.218611,4.030559 1.380423,8.467205 5.072316,10.509514 3.072518,1.840092 6.800599,2.390947 10.313397,2.227878 4.666628,-0.910054 7.239659,-5.634511 8.447121,-9.834151 0.99696,-3.65933 0.151277,-8.810897 -3.980536,-10.069002 -3.500847,-1.219685 -6.52598,1.432739 -9.746213,2.25668 z"
         style="fill:#00ff00;stroke:#000000;stroke-width:1px;stroke-linecap:butt;stroke-linejoin:miter;stroke-opacity:1" />
      <path
         inkscape:connector-curvature="0"
         id="path3098"
         d="m 44.351204,-28.001785 c 0.10455,0.03314 0.219563,0.04305 0.313651,0.09941 0.0076,0.0046 0.107059,0.223735 0.126294,0.252588 0.01651,0.02477 0.04663,0.03838 0.06315,0.06315 0.02611,0.03916 0.02987,0.09301 0.06315,0.126294 0.03328,0.03328 0.09301,0.02986 0.126294,0.06315 0.06656,0.06656 0.06981,0.17728 0.126294,0.252587 0.03572,0.04763 0.09057,0.07867 0.126294,0.126294 0.02824,0.03765 0.03893,0.08593 0.06315,0.126294 0.03905,0.06508 0.08725,0.124363 0.126294,0.189441 0.02421,0.04036 0.03704,0.08713 0.06315,0.126294 0.01651,0.02477 0.04983,0.03652 0.06315,0.06315 0.0094,0.01883 -0.0094,0.04432 0,0.06315 0.131401,0.262802 -0.0044,-0.06751 0.126293,0.06315 0.01488,0.01488 -0.0094,0.04432 0,0.06315 0.01331,0.02662 0.04983,0.03652 0.06315,0.06315 0.0094,0.01883 -0.0094,0.04432 0,0.06315 0.01331,0.02662 0.05373,0.03491 0.06315,0.06315 0.01331,0.03994 -0.01331,0.08636 0,0.126293 0.0094,0.02824 0.04983,0.03652 0.06315,0.06315 0.0094,0.01883 0,0.0421 0,0.06315 0.02105,0.02105 0.04983,0.03652 0.06315,0.06315 0.0094,0.01883 -0.0067,0.04318 0,0.06315 0.01488,0.04465 0.04826,0.08164 0.06315,0.126294 0.0067,0.01997 -0.0094,0.04432 0,0.06315 0.01331,0.02662 0.04983,0.03652 0.06315,0.06315 0.0094,0.01883 0,0.0421 0,0.06315 0,0.0421 -0.01331,0.08636 0,0.126294 0.0094,0.02824 0.04983,0.03652 0.06315,0.06315 0.02018,0.04035 -0.01694,0.201761 0,0.252588 0.01488,0.04465 0.04826,0.08164 0.06315,0.126294 0.0067,0.01997 0,0.0421 0,0.06315 0,0.0421 0,0.0842 0,0.126293 0,0.0842 0,0.168392 0,0.252588 0,0.05288 -0.01201,0.267714 0,0.315735 0.01141,0.04566 0.04826,0.08164 0.06315,0.126294 0.02158,0.06474 -0.02192,0.39819 0,0.442028 0.0094,0.01883 0.04826,-0.01488 0.06315,0 0.03157,0.03157 -0.03157,0.157867 0,0.189441 0.01488,0.01488 0.04432,-0.0094 0.06315,0 0.07803,0.03902 0.06315,0.06097 0.06315,0.126294 0,0.126294 0,0.252587 0,0.378881 0,0.02105 0.02105,0.06315 0,0.06315 -0.02105,0 0.01179,-0.04571 0,-0.06315 -0.03915,-0.05782 -0.09666,-0.100776 -0.144964,-0.151164"
         style="fill:none;stroke:#000000;stroke-width:1px;stroke-linecap:butt;stroke-linejoin:miter;stroke-opacity:1" />
      <path
         sodipodi:nodetypes="cccccc"
         inkscape:connector-curvature="0"
         id="path3100"
         d="m 45.351204,-27.001785 c 1.207006,-1.135799 2.155105,-2.752712 3.832422,-3.230263 1.547082,-0.185238 3.354782,0.01701 4.41406,1.294191 1.007787,1.124243 -0.207133,0.794748 -1.246482,0.936072 -1.429517,0.511758 -3.663092,2.345579 -4.984405,1.357154 -0.0928,-0.09267 -1.487346,-0.778764 -1.015595,-0.357154"
         style="fill:#008000;stroke:#000000;stroke-width:0.2;stroke-linecap:butt;stroke-linejoin:miter;stroke-miterlimit:4;stroke-opacity:1;stroke-dasharray:none" />
      <path
         inkscape:connector-curvature="0"
         id="path3875"
         d="m 43.855754,-22.756871 c -3.528258,-0.09647 -7.195794,2.317126 -7.433046,5.506057 -0.233176,3.698747 1.495256,7.76142 5.433123,9.635598 1.714372,0.883338 3.602354,1.437917 5.566452,1.74932 0.04716,-0.216713 0.1,-0.430743 0.1,-0.65958 l 0,-15.313719 c -0.101852,0.02533 -0.197788,0.06353 -0.299988,0.08603 -1.014563,-0.652343 -2.190451,-0.971552 -3.366537,-1.003709 z"
         style="fill:url(#linearGradient3074);fill-opacity:1;stroke:none" />
      <path
         sodipodi:nodetypes="cc"
         inkscape:connector-curvature="0"
         id="path3905"
         d="m 46.351204,-27.633254 c 7.307181,-1.87304 7,-1 7,-1"
         style="fill:none;stroke:#000000;stroke-width:0.2;stroke-linecap:butt;stroke-linejoin:miter;stroke-miterlimit:4;stroke-opacity:1;stroke-dasharray:none" />
    </g>
    <g
       id="g3952"
       transform="translate(33.037128,-0.99213618)">
      <path
         sodipodi:nodetypes="caccccccccc"
         inkscape:connector-curvature="0"
         id="path3943"
         d="m 23,7 c 0.642759,-0.7625516 0.856177,-3.368937 2,-3 2.212085,0.7135021 -1.527768,4.6902343 -0.25112,6.968398 0.358701,2.755385 -0.109817,5.593398 -0.868252,8.242541 C 22.810468,22.66407 19.380764,25.893515 16,27 12.558592,28.87519 9.3407392,28.985624 5.314689,28.222884 3.7258043,28.246534 0.30745699,28.188044 2.1904895,25.83592 c 2.1305149,-0.23506 4.5366857,-0.379815 6.4995151,-1.592144 2.3583324,-1.258239 3.7870544,-3.634777 5.9170344,-5.186042 1.521,-1.990697 3.622959,-3.379138 5.190136,-5.308967 C 21.379085,11.775387 21.84796,9.2100991 23,7 z"
         style="fill:#ffcc00;stroke:#362b00;stroke-width:0.60000002;stroke-linecap:butt;stroke-linejoin:miter;stroke-miterlimit:4;stroke-opacity:1;stroke-dasharray:none" />
      <path
         transform="matrix(1.473602,0,0,1,-1.3576589,1.8579194)"
         d="M 3,25 C 3,25.552285 2.7761424,26 2.5,26 2.2238576,26 2,25.552285 2,25 2,24.447715 2.2238576,24 2.5,24 2.7761424,24 3,24.447715 3,25 z"
         sodipodi:ry="1"
         sodipodi:rx="0.5"
         sodipodi:cy="25"
         sodipodi:cx="2.5"
         id="path3948"
         style="fill:#3c3300;fill-opacity:1;stroke:none"
         sodipodi:type="arc" />
      <path
         sodipodi:nodetypes="cccccsc"
         transform="translate(0,2)"
         inkscape:connector-curvature="0"
         id="path3950"
         d="m 6,24 c -0.3428193,0.468564 -0.1430484,0.82861 1,1 4.043141,-1.337252 7.901058,-2.836575 11,-5 2.927271,-3.387878 4.390883,-6.3254 5,-9 L 24,4 C 22.741284,5.7911591 22.167561,9.3794567 20,12 15.992858,16.844564 9.9365219,22.311679 6,24 z"
         style="opacity:0.42145595;fill:#fffadf;fill-opacity:1;stroke:none" />
    </g>
    <g
       id="g3997"
       transform="translate(0.49619959,-0.32104718)">
      <path
         transform="matrix(1.1371931,0,0,1.0262455,-2.626493,1.0931948)"
         d="M 27,15.5 C 27,21.851275 21.851275,27 15.5,27 9.1487254,27 4,21.851275 4,15.5 4,9.1487254 9.1487254,4 15.5,4 21.851275,4 27,9.1487254 27,15.5 z"
         sodipodi:ry="11.5"
         sodipodi:rx="11.5"
         sodipodi:cy="15.5"
         sodipodi:cx="15.5"
         id="path3916"
         style="fill:#ff6600;fill-opacity:1;stroke:#3a1700;stroke-width:0.5;stroke-miterlimit:4;stroke-opacity:1;stroke-dasharray:none"
         sodipodi:type="arc" />
      <path
         inkscape:connector-curvature="0"
         id="path3918"
         d="M 15.452071,5.7242631 C 8.2798044,5.7745183 2.4809637,10.763703 2.4809637,16.910446 c 0,6.146741 5.7988407,11.135925 12.9711073,11.186182 l 0,-22.3723649 z"
         style="fill:url(#linearGradient4003);fill-opacity:1;stroke:none" />
      <path
         sodipodi:nodetypes="cccccccccccccccc"
         inkscape:connector-curvature="0"
         id="path3931"
         d="m 14.328005,5.8382776 c -0.0055,0.251636 0.06449,0.5166297 -0.152696,0.7435375 -0.101505,0.2907001 -0.533649,0.3923854 -0.937163,0.4337641 -0.347018,0.1179326 -0.944119,-0.1160825 -1.089729,0.1979192 0.337713,0.2441531 0.945092,0.077905 1.392177,0.091123 0.56994,-0.046675 0.391896,0.4010256 0.598733,0.6037534 -0.0238,0.295443 0.584606,0.573091 0.701631,0.1609916 0.0324,-0.2182409 -0.164381,-0.7238734 0.426681,-0.621106 0.287613,0.1446711 0.284138,0.5170307 0.784879,0.4997937 0.472348,-0.018002 0.282245,-0.4564653 0.160517,-0.6450717 -0.133332,-0.1584202 -0.128758,-0.5366152 0.269989,-0.3207335 0.387985,0.080738 0.812115,-0.3192007 0.402181,-0.4727189 -0.477854,-0.1282468 -0.89988,0.1628331 -1.347143,0.2085866 -0.427823,-0.07642 -0.237287,-0.4675709 -0.486553,-0.6533343 -0.219018,-0.1750037 -0.922114,-0.328766 -0.720543,0.041552 0.101585,0.3320353 -0.14805,0.6172256 -0.495911,0.840794"
         style="opacity:0.81992337;fill:#552200;fill-opacity:1;stroke:#000000;stroke-width:0.27806956;stroke-linecap:butt;stroke-linejoin:miter;stroke-miterlimit:4;stroke-opacity:1;stroke-dasharray:none" />
      <path
         transform="matrix(0.95088572,0,0,0.75530566,1.0910386,3.3655522)"
         d="M 19,5 C 19,6.1045695 16.985281,7 14.5,7 12.014719,7 10,6.1045695 10,5 10,3.8954305 12.014719,3 14.5,3 16.985281,3 19,3.8954305 19,5 z"
         sodipodi:ry="2"
         sodipodi:rx="4.5"
         sodipodi:cy="5"
         sodipodi:cx="14.5"
         id="path3995"
         style="opacity:0.27969348;fill:#971f00;fill-opacity:1;stroke:none"
         sodipodi:type="arc" />
    </g>
    <g
       id="g4097"
       transform="translate(-32.863592,-0.89303198)">
      <path
         style="fill:#00ff00;stroke:#000000;stroke-width:0.59657848px;stroke-linecap:butt;stroke-linejoin:miter;stroke-opacity:1"
         d="m 21.465899,9.2701706 -2.476121,0.5245292 c -1.734849,-2.451483 -2.890381,-4.8308385 -0.57337,-6.7778327 2.931251,0.6127399 4.320057,2.2972703 4.850661,4.5781354 z"
         id="path4089"
         inkscape:connector-curvature="0"
         sodipodi:nodetypes="ccccc" />
      <path
         sodipodi:nodetypes="ccccc"
         inkscape:connector-curvature="0"
         id="path4091"
         d="m 21.076644,9.3555976 0.5885,2.7781044 c 3.303443,0.664001 6.269365,0.766673 7.212113,-2.4953668 C 26.915338,6.9108273 25.274752,6.4517273 22.694135,6.9451687 z"
         style="fill:#00ff00;stroke:#000000;stroke-width:0.66933638px;stroke-linecap:butt;stroke-linejoin:miter;stroke-opacity:1" />
      <path
         style="opacity:0.35135139;fill:none;stroke:#000000;stroke-width:0.66933638px;stroke-linecap:round;stroke-linejoin:round;stroke-opacity:1"
         d="m 18.716917,3.239107 c 0.146654,2.0656479 0.753945,4.123291 2.103035,5.3600439"
         id="path4093"
         inkscape:connector-curvature="0"
         sodipodi:nodetypes="cc" />
      <path
         style="opacity:0.35135139;fill:none;stroke:#000000;stroke-width:0.66933638px;stroke-linecap:round;stroke-linejoin:round;stroke-opacity:1"
         d="m 21.942154,9.3290195 c 2.173716,1.2336615 4.889513,0.2959979 6.313477,0.1139699"
         id="path4095"
         inkscape:connector-curvature="0"
         sodipodi:nodetypes="cc" />
      <path
         sodipodi:nodetypes="ccccsccccsscsc"
         inkscape:connector-curvature="0"
         id="path4024"
         d="M 2.7261687,19.996488 C 3.1563035,17.326518 3.3735236,14.4025 5.3018452,12.317493 7.6532438,9.4114092 11.4774,8.4289715 15.061045,8.2952252 c 1.946424,-0.2855019 4.004602,0.053198 5.753713,-1.0457982 1.435397,-0.6960756 2.429637,0.029301 2.37081,1.3631542 -0.03432,0.7781661 -1.010219,2.0550118 -0.930008,2.6095158 -0.310297,3.029814 0.683015,5.39555 0.391229,8.449092 0.203286,3.993546 -3.402024,7.151991 -7.096438,7.841607 -2.759076,0.574908 -3.867007,1.443832 -6.5775046,0.691046 -0.9636789,-0.211796 -2.8288195,-0.155208 -4.025958,0.308072 -0.7680947,0.297244 -0.889681,0.984818 -1.5467361,1.141343 -0.6334112,0.150894 -1.3315418,-1.046124 -1.9713645,-2.022401 1.0332919,-0.999968 0.5928761,-0.605961 1.0680066,-2.451697 0.56138,-2.180789 0.00291,-4.152193 0.2293743,-5.182671 z"
         style="fill:#d4ff2a;stroke:#000000;stroke-width:0.60000002;stroke-linecap:round;stroke-linejoin:round;stroke-miterlimit:4;stroke-opacity:1;stroke-dasharray:none" />
      <path
         inkscape:connector-curvature="0"
         id="path4050"
         d="m 20.795939,7.7653328 c -0.186707,-0.012933 -0.399666,0.045727 -0.660899,0.1724085 -1.608329,1.0105401 -3.497434,0.6857245 -5.287195,0.9482471 -3.295205,0.122981 -6.8031038,1.0346043 -8.9652428,3.7067836 -1.7731155,1.917189 -1.9894703,4.61368 -2.3849846,7.06875 -0.2082392,0.947537 0.2001134,3.598015 -0.3160823,5.603277 -0.4368879,1.697176 0.104268,3.132371 0.344817,2.758536 0.8920748,-0.640614 1.8814828,-0.945914 2.9022102,-1.034451 0.00827,-0.02286 -0.00976,-0.0019 0,-0.02874 0.035622,-0.09795 0.07181,-0.192461 0.1149391,-0.287347 0.053727,-0.118199 0.1313504,-0.221644 0.1724085,-0.344817 0.037231,-0.111689 0.026491,-0.25997 0.057469,-0.373552 0.027429,-0.100557 0.087515,-0.186792 0.114939,-0.287348 0.1302848,-0.220615 0.0051,-0.46254 0.057469,-0.689634 0.033148,-0.143627 0.1194943,-0.264709 0.1724086,-0.402286 0.087887,-0.228503 0.1357163,-0.463646 0.229878,-0.689634 0.049939,-0.119849 0.1313505,-0.221644 0.1724085,-0.344818 0.037231,-0.111689 0.013747,-0.264242 0.057469,-0.373551 0.035944,-0.08986 0.1187274,-0.149358 0.1724086,-0.229878 0.024008,-0.03601 0.038114,-0.07624 0.057469,-0.114939 0.038711,-0.07742 0.084546,-0.148833 0.114939,-0.229878 0.028017,-0.07472 0.054766,-0.156529 0.086204,-0.229878 0.027493,-0.06415 0.071341,-0.117916 0.114939,-0.172409 0.034197,-0.04275 0.093375,-0.06462 0.114939,-0.114939 0.038877,-0.09071 0.00271,-0.205232 0.057469,-0.287348 0.068743,-0.103116 0.2129884,-0.130732 0.2873475,-0.229878 0.047881,-0.06384 0.026034,-0.156528 0.05747,-0.229878 0.02749,-0.06414 0.080316,-0.111819 0.114939,-0.172408 0.042944,-0.07515 0.076229,-0.152459 0.114939,-0.229878 0.03871,-0.07742 0.080843,-0.150319 0.114939,-0.229878 0.083088,-0.193872 0.021485,-0.160327 0.114939,-0.316083 0.035904,-0.05984 0.076229,-0.114344 0.114939,-0.172408 0.03871,-0.05807 0.070264,-0.118798 0.114939,-0.172409 0.218349,-0.262019 0.130079,-0.0696 0.287348,-0.344817 0.04294,-0.07515 0.07041,-0.155656 0.114939,-0.229878 0.245522,-0.409204 0.4504257,-0.726779 0.7471027,-1.09192 0.129741,-0.159681 0.291023,-0.308989 0.431022,-0.459756 0.186251,-0.200579 0.39445,-0.397437 0.574695,-0.60343 0.06372,-0.07283 0.103979,-0.161449 0.172408,-0.229878 0.08763,-0.08763 0.19523,-0.146972 0.287348,-0.229878 0.183108,-0.164797 0.343032,-0.343033 0.517225,-0.517226 0.07742,-0.07742 0.146749,-0.158625 0.229878,-0.229878 0.05298,-0.04542 0.119425,-0.06952 0.172409,-0.114939 0.08313,-0.07125 0.145767,-0.159785 0.229878,-0.229878 0.03325,-0.02771 0.08032,-0.0315 0.114939,-0.05747 0.0438,-0.03284 0.07623,-0.07624 0.114939,-0.114939 l 0.229878,-0.229878 c 0.03871,-0.03871 0.09988,-0.08209 0.143674,-0.114939 0.03462,-0.02597 0.08032,-0.0315 0.114939,-0.05747 0.144682,-0.108512 0.09148,-0.123735 0.172408,-0.258613 0.03591,-0.05984 0.07623,-0.114344 0.114939,-0.172408 0.03871,-0.05807 0.06559,-0.123063 0.114939,-0.172409 0.209182,-0.209182 0.204471,-0.1225 0.402287,-0.287348 0.105138,-0.08761 0.180478,-0.201852 0.287348,-0.287347 0.05449,-0.04359 0.117915,-0.07134 0.172408,-0.114939 0.04275,-0.0342 0.07114,-0.08209 0.114939,-0.114939 0.06925,-0.05193 0.160632,-0.06301 0.229878,-0.114939 0.0438,-0.03285 0.07114,-0.08209 0.114939,-0.114939 0.03462,-0.02597 0.08032,-0.0315 0.114939,-0.05747 0.0438,-0.03285 0.06411,-0.09461 0.114939,-0.114939 0.05391,-0.02156 0.117324,0.01836 0.172409,0 0.06621,-0.02207 0.112568,-0.07904 0.172408,-0.114939 0.03711,-0.02227 0.07893,-0.03346 0.114939,-0.05747 0.02278,-0.01518 0.03469,-0.04229 0.05747,-0.05747 0.107196,-0.07146 0.266356,-0.100945 0.373552,-0.172408 0.02278,-0.01518 0.03469,-0.04229 0.05747,-0.05747 0.164634,-0.109756 0.06525,-0.0051 0.229878,-0.114939 0.02278,-0.01518 0.03558,-0.04105 0.05747,-0.05747 0.05582,-0.04187 0.11658,-0.07307 0.172408,-0.114939 0.0438,-0.03285 0.06939,-0.08458 0.114939,-0.114939 0.07202,-0.04802 0.157858,-0.06693 0.229878,-0.114939 0.02278,-0.01518 0.03469,-0.04229 0.05747,-0.05747 0.135603,-0.09041 0.324153,-0.16821 0.459756,-0.258613 0.02278,-0.01518 0.03469,-0.04229 0.05747,-0.05747 0.04595,-0.03063 0.293556,-0.155321 0.344817,-0.172409 0.01836,-0.0062 0.03911,0.0062 0.05747,0 0.2105,-0.07017 0.03954,-0.02636 0.172408,-0.114939 0.04595,-0.03063 0.293556,-0.155321 0.344818,-0.172408 0.01836,-0.0062 0.03911,0.0062 0.05747,0 0.2105,-0.07017 0.06827,-0.02636 0.201143,-0.114939 0.03601,-0.02401 0.07893,-0.03346 0.114939,-0.05747 0.02278,-0.01518 0.03469,-0.04229 0.05747,-0.05747 0.03601,-0.02401 0.07893,-0.03346 0.114939,-0.05747 0.02278,-0.01518 0.0315,-0.04882 0.05747,-0.05747 0.03673,-0.01224 0.07821,0.01224 0.114939,0 0.05193,-0.01731 0.06939,-0.08457 0.114939,-0.114939 0.07202,-0.04802 0.157859,-0.06692 0.229878,-0.114939 0.04555,-0.03036 0.06939,-0.08457 0.114939,-0.114939 0.03601,-0.02401 0.07893,-0.03346 0.114939,-0.05747 0.04555,-0.03036 0.06939,-0.08457 0.114939,-0.114939 0.03601,-0.02401 0.07893,-0.03346 0.11494,-0.05747 0.06699,-0.04466 0.105411,-0.127744 0.172408,-0.172409 0.08461,-0.05641 0.119156,-0.03506 0.172409,-0.114939 0.02401,-0.03601 0.02687,-0.08434 0.05747,-0.114939 0.01368,-0.01368 0.04137,0.01074 0.05747,0 0.06493,-0.04328 0.166679,-0.166679 0.229878,-0.229878 l 0.229878,-0.2298783 c 0.03871,-0.03871 0.08209,-0.07114 0.114939,-0.114939 0.02597,-0.03462 0.03346,-0.07893 0.05747,-0.114939 0.02937,-0.04405 0.101758,-0.09649 0.143674,-0.1436743 C 21.666112,8.5320254 21.40768,7.8077087 20.795939,7.7653328 z"
         style="opacity:0.50191614;fill:#f8ff4f;fill-opacity:1;stroke:none" />
    </g>
    <g
       id="g4123"
       transform="translate(-33.249116,-36.415967)">
      <path
         sodipodi:nodetypes="cccscccc"
         style="fill:#d40000;fill-opacity:1;stroke:#000000;stroke-width:1.04256773px;stroke-linecap:butt;stroke-linejoin:miter;stroke-opacity:1"
         d="m 13.510918,12.413249 c -3.7980714,-3.0961281 -9.7922771,0.30024 -10.0883321,5.345303 -0.218227,4.388715 1.3779981,9.219602 5.0634057,11.443391 3.3914954,2.062597 6.8287984,0.836817 8.6600514,0.790043 0.699812,-0.01788 1.693775,0.500923 2.95721,0.232585 4.65843,-0.990921 5.90496,-4.731975 7.110301,-9.304796 0.995209,-3.984498 0.151011,-9.593834 -3.973543,-10.9637345 -3.494698,-1.3280664 -6.514516,1.5600525 -9.729093,2.4572085 z"
         id="path4105"
         inkscape:connector-curvature="0" />
      <path
         style="fill:none;stroke:#000000;stroke-width:1.21605301px;stroke-linecap:butt;stroke-linejoin:miter;stroke-opacity:1"
         d="m 12.310065,3.183769 c 0.09406,0.05447 0.197543,0.070758 0.282195,0.1633924 0.0068,0.00756 0.09632,0.3677355 0.113628,0.4151589 0.01485,0.040713 0.04195,0.063082 0.05682,0.1037946 0.02349,0.064364 0.02687,0.1528732 0.05682,0.2075795 0.02994,0.0547 0.08368,0.049079 0.113628,0.1037946 0.05989,0.1093994 0.06281,0.2913811 0.113628,0.4151573 0.03214,0.078286 0.08149,0.1293036 0.113628,0.2075794 0.02541,0.061882 0.03503,0.1412364 0.05682,0.2075795 0.03513,0.1069668 0.0785,0.2044056 0.113628,0.3113692 0.02178,0.066337 0.03333,0.1432087 0.05682,0.2075794 0.01485,0.040713 0.04483,0.060025 0.05682,0.1037947 0.0085,0.030949 -0.0085,0.072845 0,0.1037946 0.118223,0.4319469 -0.004,-0.1109608 0.113627,0.1037947 0.01339,0.024457 -0.0085,0.072845 0,0.1037947 0.01197,0.043753 0.04483,0.060025 0.05682,0.1037946 0.0085,0.030949 -0.0085,0.072845 0,0.1037947 0.01197,0.043753 0.04834,0.057379 0.05682,0.1037946 0.01197,0.065646 -0.01198,0.1419431 0,0.2075778 0.0085,0.046416 0.04483,0.060025 0.05682,0.1037947 0.0085,0.030949 0,0.069196 0,0.1037947 0.01894,0.034598 0.04483,0.060025 0.05682,0.1037946 0.0085,0.030949 -0.006,0.070972 0,0.1037947 0.01339,0.073388 0.04342,0.1341852 0.05682,0.2075794 0.006,0.032823 -0.0085,0.072845 0,0.1037947 0.01197,0.043753 0.04483,0.060025 0.05682,0.1037946 0.0085,0.030949 0,0.069196 0,0.1037947 0,0.069196 -0.01197,0.1419431 0,0.2075794 0.0085,0.046416 0.04483,0.060025 0.05682,0.1037947 0.01816,0.06632 -0.01524,0.3316186 0,0.4151589 0.01339,0.073388 0.04342,0.1341852 0.05682,0.2075795 0.006,0.032823 0,0.069196 0,0.1037946 0,0.069197 0,0.1383929 0,0.2075778 0,0.1383929 0,0.2767725 0,0.4151588 0,0.086915 -0.01081,0.4400203 0,0.5189486 0.01027,0.075048 0.04342,0.1341852 0.05682,0.2075794 0.01942,0.1064081 -0.01972,0.654473 0,0.726526 0.0085,0.03095 0.04342,-0.02446 0.05682,0 0.0284,0.05189 -0.0284,0.259474 0,0.31137 0.01339,0.02446 0.03988,-0.01545 0.05682,0 0.0702,0.06413 0.05682,0.100211 0.05682,0.207579 0,0.20758 0,0.415157 0,0.622737 0,0.0346 0.01894,0.103794 0,0.103794 -0.01894,0 0.01061,-0.07513 0,-0.103794 -0.03522,-0.09503 -0.08697,-0.165638 -0.130426,-0.248456"
         id="path4107"
         inkscape:connector-curvature="0" />
      <path
         sodipodi:nodetypes="scccsccs"
         style="fill:url(#linearGradient4115);fill-opacity:1;stroke:none"
         d="m 11.706588,11.892786 c -3.5282584,-0.09647 -7.1957944,2.317126 -7.4330464,5.506057 -0.233176,3.698747 1.3689621,9.276946 5.3068291,11.151124 1.7143723,0.883338 3.7286483,0.238126 5.6927463,0.549529 0.04716,-0.216713 0.1,-0.746478 0.1,-0.975315 l 0,-15.313719 c -0.101852,0.02533 -0.197788,0.06353 -0.299988,0.08603 -1.014563,-0.652343 -2.190451,-0.971552 -3.366541,-1.003706 z"
         id="path4111"
         inkscape:connector-curvature="0" />
      <path
         style="fill:#00ff00;stroke:#000000;stroke-width:0.89099997;stroke-linecap:round;stroke-linejoin:round;stroke-miterlimit:4;stroke-opacity:1;stroke-dasharray:none"
         d="m 13.208545,6.8611119 c 0,0 0.425526,0.523266 0.261555,0.7183202 C 11.162834,10.324067 3.4768077,10.172977 2.8803869,5.6909342 6.0032852,3.5618288 12.100353,5.5387117 12.832182,5.5367673 c 0.751375,-0.002 0.376363,1.3243446 0.376363,1.3243446 z"
         id="path4117"
         inkscape:connector-curvature="0"
         sodipodi:nodetypes="cacsc" />
      <path
         style="opacity:0.35135139;fill:none;stroke:#000000;stroke-width:1px;stroke-linecap:round;stroke-linejoin:round;stroke-opacity:1"
         d="M 3.4015099,5.4903229 C 6.1230455,6.9618345 9.2038614,7.8462526 11.844697,7.1373172"
         id="path4121"
         inkscape:connector-curvature="0"
         sodipodi:nodetypes="cc" />
    </g>
    <g
       id="g4166"
       transform="matrix(1.2023109,0,0,1,-37.160653,30.541708)">
      <path
         sodipodi:type="arc"
         style="fill:#7fff2a;fill-rule:evenodd;stroke:#000000;stroke-width:1px;stroke-linecap:butt;stroke-linejoin:miter;stroke-opacity:1"
         id="path4136"
         sodipodi:cx="7.5"
         sodipodi:cy="12"
         sodipodi:rx="3.5"
         sodipodi:ry="3"
         d="M 11,12 C 11,13.656854 9.4329966,15 7.5,15 5.5670034,15 4,13.656854 4,12 4,10.343146 5.5670034,9 7.5,9 9.4329966,9 11,10.343146 11,12 z"
         transform="matrix(0.92017554,0,0,0.96844073,4.1589626,0.87607078)" />
      <path
         d="M 11,12 C 11,13.656854 9.4329966,15 7.5,15 5.5670034,15 4,13.656854 4,12 4,10.343146 5.5670034,9 7.5,9 9.4329966,9 11,10.343146 11,12 z"
         sodipodi:ry="3"
         sodipodi:rx="3.5"
         sodipodi:cy="12"
         sodipodi:cx="7.5"
         id="path4138"
         style="fill:#7fff2a;fill-rule:evenodd;stroke:#000000;stroke-width:1px;stroke-linecap:butt;stroke-linejoin:miter;stroke-opacity:1"
         sodipodi:type="arc"
         transform="matrix(0.82033636,0,0,1.0487512,2.531335,5.1543521)" />
      <path
         d="M 11,12 C 11,13.656854 9.4329966,15 7.5,15 5.5670034,15 4,13.656854 4,12 4,10.343146 5.5670034,9 7.5,9 9.4329966,9 11,10.343146 11,12 z"
         sodipodi:ry="3"
         sodipodi:rx="3.5"
         sodipodi:cy="12"
         sodipodi:cx="7.5"
         id="path4140"
         style="fill:#7fff2a;fill-rule:evenodd;stroke:#000000;stroke-width:1px;stroke-linecap:butt;stroke-linejoin:miter;stroke-opacity:1"
         sodipodi:type="arc"
         transform="matrix(0.91772586,0,0,0.97588853,8.8683226,15.401649)" />
      <path
         transform="matrix(0.82059631,0,0,1.0282398,5.0441523,10.37246)"
         sodipodi:type="arc"
         style="fill:#7fff2a;fill-rule:evenodd;stroke:#000000;stroke-width:1px;stroke-linecap:butt;stroke-linejoin:miter;stroke-opacity:1"
         id="path4142"
         sodipodi:cx="7.5"
         sodipodi:cy="12"
         sodipodi:rx="3.5"
         sodipodi:ry="3"
         d="M 11,12 C 11,13.656854 9.4329966,15 7.5,15 5.5670034,15 4,13.656854 4,12 4,10.343146 5.5670034,9 7.5,9 9.4329966,9 11,10.343146 11,12 z" />
      <path
         d="M 11,12 C 11,13.656854 9.4329966,15 7.5,15 5.5670034,15 4,13.656854 4,12 4,10.343146 5.5670034,9 7.5,9 9.4329966,9 11,10.343146 11,12 z"
         sodipodi:ry="3"
         sodipodi:rx="3.5"
         sodipodi:cy="12"
         sodipodi:cx="7.5"
         id="path4144"
         style="fill:#7fff2a;fill-rule:evenodd;stroke:#000000;stroke-width:1px;stroke-linecap:butt;stroke-linejoin:miter;stroke-opacity:1"
         sodipodi:type="arc"
         transform="matrix(0.6931292,0,0,0.90749194,16.750233,6.6773128)" />
      <path
         transform="matrix(0.70407867,0,0,1.0248732,14.210929,10.316478)"
         sodipodi:type="arc"
         style="fill:#7fff2a;fill-rule:evenodd;stroke:#000000;stroke-width:1px;stroke-linecap:butt;stroke-linejoin:miter;stroke-opacity:1"
         id="path4146"
         sodipodi:cx="7.5"
         sodipodi:cy="12"
         sodipodi:rx="3.5"
         sodipodi:ry="3"
         d="M 11,12 C 11,13.656854 9.4329966,15 7.5,15 5.5670034,15 4,13.656854 4,12 4,10.343146 5.5670034,9 7.5,9 9.4329966,9 11,10.343146 11,12 z" />
      <path
         transform="matrix(0.82130092,0,0,1.0008535,13.766809,0.66429618)"
         sodipodi:type="arc"
         style="fill:#7fff2a;fill-rule:evenodd;stroke:#000000;stroke-width:1px;stroke-linecap:butt;stroke-linejoin:miter;stroke-opacity:1"
         id="path4148"
         sodipodi:cx="7.5"
         sodipodi:cy="12"
         sodipodi:rx="3.5"
         sodipodi:ry="3"
         d="M 11,12 C 11,13.656854 9.4329966,15 7.5,15 5.5670034,15 4,13.656854 4,12 4,10.343146 5.5670034,9 7.5,9 9.4329966,9 11,10.343146 11,12 z" />
      <path
         transform="matrix(0.82393651,0,0,0.97260115,6.5936634,5.9650965)"
         sodipodi:type="arc"
         style="fill:#7fff2a;fill-rule:evenodd;stroke:#000000;stroke-width:1px;stroke-linecap:butt;stroke-linejoin:miter;stroke-opacity:1"
         id="path4150"
         sodipodi:cx="7.5"
         sodipodi:cy="12"
         sodipodi:rx="3.5"
         sodipodi:ry="3"
         d="M 11,12 C 11,13.656854 9.4329966,15 7.5,15 5.5670034,15 4,13.656854 4,12 4,10.343146 5.5670034,9 7.5,9 9.4329966,9 11,10.343146 11,12 z" />
      <path
         d="M 11,12 C 11,13.656854 9.4329966,15 7.5,15 5.5670034,15 4,13.656854 4,12 4,10.343146 5.5670034,9 7.5,9 9.4329966,9 11,10.343146 11,12 z"
         sodipodi:ry="3"
         sodipodi:rx="3.5"
         sodipodi:cy="12"
         sodipodi:cx="7.5"
         id="path4152"
         style="fill:#7fff2a;fill-rule:evenodd;stroke:#000000;stroke-width:1px;stroke-linecap:butt;stroke-linejoin:miter;stroke-opacity:1"
         sodipodi:type="arc"
         transform="matrix(0.82393651,0,0,0.97260115,11.740326,6.16998)" />
      <path
         transform="matrix(0.82130092,0,0,1.0008536,9.1977513,11.179455)"
         sodipodi:type="arc"
         style="fill:#7fff2a;fill-rule:evenodd;stroke:#000000;stroke-width:1px;stroke-linecap:butt;stroke-linejoin:miter;stroke-opacity:1"
         id="path4154"
         sodipodi:cx="7.5"
         sodipodi:cy="12"
         sodipodi:rx="3.5"
         sodipodi:ry="3"
         d="M 11,12 C 11,13.656854 9.4329966,15 7.5,15 5.5670034,15 4,13.656854 4,12 4,10.343146 5.5670034,9 7.5,9 9.4329966,9 11,10.343146 11,12 z" />
      <path
         style="fill:none;stroke:#2b2200;stroke-width:1px;stroke-linecap:round;stroke-linejoin:round;stroke-opacity:1"
         d="M 15.699509,12.230548 C 16.273013,8.5407161 13.525952,5.24238 12.518183,3.349154"
         id="path4158"
         inkscape:connector-curvature="0"
         sodipodi:nodetypes="cc" />
      <path
         d="M 11,12 C 11,13.656854 9.4329966,15 7.5,15 5.5670034,15 4,13.656854 4,12 4,10.343146 5.5670034,9 7.5,9 9.4329966,9 11,10.343146 11,12 z"
         sodipodi:ry="3"
         sodipodi:rx="3.5"
         sodipodi:cy="12"
         sodipodi:cx="7.5"
         id="path4160"
         style="fill:#7fff2a;fill-rule:evenodd;stroke:#000000;stroke-width:1px;stroke-linecap:butt;stroke-linejoin:miter;stroke-opacity:1"
         sodipodi:type="arc"
         transform="matrix(0.82641003,0,0,0.89081471,9.2202408,2.3517503)" />
      <path
         inkscape:connector-curvature="0"
         id="path4162"
         d="m 10.627086,3.5122664 c -0.0364,0.281287 0.320711,0.1848518 0.484564,0.1744207 0.175309,0.1329116 0.373727,0.1113121 0.580762,0.094826 0.329535,-0.00435 0.659097,7.096e-4 0.988642,-0.00134 0.117358,-0.208005 0.411711,0.021814 0.545419,-0.168745 0.209703,-0.057221 0.434195,0.036462 0.63955,-0.03133 0.107017,-0.1815227 0.406114,0.056544 0.440057,-0.1681317 0.168462,0.04328 0.321175,-0.0751 0.386358,-0.1849004 0.121568,0.1079013 0.121926,-0.053769 0.182243,-0.072319 0.01298,1.017e-4 0.02596,2.035e-4 0.03894,3.052e-4"
         style="fill:none;stroke:#000000;stroke-width:1px;stroke-linecap:butt;stroke-linejoin:miter;stroke-opacity:1" />
    </g>
  </g>
</svg>
